HIERARCHY
ROOT Spine
{
    OFFSET 0.0 0.0 -0.0
    CHANNELS 6 Xposition Yposition Zposition Zrotation Xrotation Yrotation
    JOINT ShoulderCenter
    {
        OFFSET 0.0 32.728885650634766 0.0
        CHANNELS 3 Zrotation Xrotation Yrotation
        JOINT LeftShoulder
        {
            OFFSET 19.0728759765625 0.0 0.0
            CHANNELS 3 Zrotation Xrotation Yrotation
            JOINT LeftElbow
            {
                OFFSET 28.858617782592773 0.0 0.0
                CHANNELS 3 Zrotation Xrotation Yrotation
                JOINT LeftHand
                {
                    OFFSET 32.76009750366211 0.0 0.0
                    CHANNELS 3 Zrotation Xrotation Yrotation
                    End Site
                    {
                        OFFSET 13.10403823852539 0.0 0.0
                    }
                }
            }
        }
        JOINT RightShoulder
        {
            OFFSET -19.0728759765625 0.0 0.0
            CHANNELS 3 Zrotation Xrotation Yrotation
            JOINT RightElbow
            {
                OFFSET -28.858617782592773 0.0 0.0
                CHANNELS 3 Zrotation Xrotation Yrotation
                JOINT RightHand
                {
                    OFFSET -32.76009750366211 0.0 0.0
                    CHANNELS 3 Zrotation Xrotation Yrotation
                    End Site
                    {
                        OFFSET -13.10403823852539 0.0 0.0
                    }
                }
            }
        }
        End Site
        {
            OFFSET 0.0 13.091553688049316 0.0
        }
    }
    JOINT LeftHip
    {
        OFFSET 16.319533529346096 -16.319533529346096 0.0
        CHANNELS 3 Zrotation Xrotation Yrotation
        JOINT LeftKnee
        {
            OFFSET 0.0 -41.1805419921875 0.0
            CHANNELS 3 Zrotation Xrotation Yrotation
            JOINT LeftFoot
            {
                OFFSET 0.0 -43.48839569091797 0.0
                CHANNELS 3 Zrotation Xrotation Yrotation
                End Site
                {
                    OFFSET 0.0 0.0 17.395360946655273
                }
            }
        }
    }
    JOINT RightHip
    {
        OFFSET -16.319533529346096 -16.319533529346096 0.0
        CHANNELS 3 Zrotation Xrotation Yrotation
        JOINT RightKnee
        {
            OFFSET 0.0 -41.1805419921875 0.0
            CHANNELS 3 Zrotation Xrotation Yrotation
            JOINT RightFoot
            {
                OFFSET 0.0 -43.48839569091797 0.0
                CHANNELS 3 Zrotation Xrotation Yrotation
                End Site
                {
                    OFFSET 0.0 0.0 17.395360946655273
                }
            }
        }
    }
}
MOTION
Frames: 6
Frame Time: 0.03333333333333333
52.999996185302734 14.399999618530273 254.3000030517578 1.818296237887129 14.243124276632479 -4.720456001637059 -7.321534546029329e-08 -1.7206979740146208e-06 -4.840909252955869 90.5339707310417 32.71531404800054 171.25005725275787 1.8495765146539558e-06 -8.471342655765977e-07 25.370945232074163 -1.1927080055488184e-15 0.0 0.0 -94.6353903454811 50.541579305796056 -172.92385286052675 1.0071956857150493e-06 4.548607767580102e-06 -14.138692362440878 -4.770832022195274e-15 -3.1805546814635168e-15 6.361109362927033e-15 4.3925323737283835 -16.333595581462344 -41.25435336570522 -4.809271347703879 4.493115280410595 -12.807257959541705 3.9756933518293955e-16 1.9878466759146977e-16 1.7517898831498272e-15 -3.6703436671841727 -16.05048620667755 27.61402679221368 -1.0943202512380723 6.348500055984591 15.624599988222524 -1.5902773407317588e-15 1.987846675914698e-16 2.8326815131784455e-15
52.89999771118164 14.30000114440918 254.20001220703125 1.812552810160845 14.199945887710719 -4.8955767547215965 -5.9414970481333384e-08 6.533500289364008e-07 -5.359381081673398 90.60300368043355 30.250336965483868 170.97519590985436 3.096005883709247e-06 3.0935796610691595e-06 25.96943681322339 -1.1927080055488188e-15 -1.6552148617688095e-32 1.5902773407317584e-15 -94.97144150313326 48.73873698094943 -172.4555165963768 -1.2533415137520237e-06 5.884937381168769e-06 -14.511730034196328 -1.5902773407317584e-15 8.827812596100317e-32 -6.3611093629270335e-15 4.578469733505106 -16.257038975022727 -42.03883074113697 -4.783639235907473 4.331949136314751 -12.208994391891997 -3.975693351829396e-16 7.931237879308878e-33 -2.2860236773019026e-15 -3.4272209840668006 -16.689823629805836 26.217365900994903 -0.9484008797483472 7.471503438622206 18.202216165752613 -7.951386703658792e-16 -1.8621167194899106e-32 2.683593012484842e-15
52.79999923706055 14.30000114440918 254.20001220703125 1.8125529413168253 13.687814034572401 -4.952680802152337 -5.251434727403446e-08 -7.740342657827633e-07 -6.305673052193405 91.05131151227368 28.176680064632503 170.70149417570806 1.0928056682124365e-06 1.2541608271266074e-06 26.568795931081397 -7.951386703658792e-16 7.951386703658792e-16 7.951386703658792e-16 -95.25934096400252 44.51952868956278 -172.09820998077794 -5.144821788743876e-06 3.4277713108089843e-08 -15.235561921727468 4.770832022195274e-15 3.1805546814635164e-15 -1.3241718894150476e-31 4.552174315133964 -15.748555829586497 -42.07165851975676 -4.810143141955912 4.490832503161589 -12.688904132638006 4.978575951413997e-32 9.93923337957349e-16 -5.7399072767036906e-15 -3.5869363802513425 -16.193096306453555 26.39532451414397 -0.5672067996821275 7.325813595923878 17.656026156492974 -7.951386703658792e-16 -7.58640144977371e-33 1.0933156717530838e-15
52.70000076293945 14.30000114440918 254.0 1.8068387980497662 13.475612597428315 -6.5000637412828075 -3.571112423225939e-08 1.1774472553158575e-06 -5.69256066868769 91.54201693605198 26.01787788232966 170.97426208479482 3.234499606351342e-06 -1.5001089853880007e-06 27.465795154871632 -6.2617170291312985e-15 -4.344939012143125e-32 7.951386703658792e-16 -94.3704580474297 40.35142971261661 -172.88435165738784 1.4350089069882816e-07 -1.4631010735689837e-07 -16.58757372956652 -1.5902773407317584e-15 6.3611093629270335e-15 3.1805546814635168e-15 5.252480283061634 -15.371206796116518 -44.88119048654477 -4.97341998180319 4.107212242632843 -11.698788645675037 0.0 0.0 7.156248033292914e-15 -2.7000470562275543 -16.304904614509173 25.329521466833274 -1.2105360263721285 7.254078460045979 17.31773981516259 -7.951386703658792e-16 -5.963540027744094e-16 3.0811623476677818e-15
52.60000228881836 14.200000762939453 253.80001831054688 1.8011672580565137 13.264266020851002 -6.434985170377554 -5.328050185106785e-08 -6.990122061083702e-07 -6.570287231516247 92.07726782282536 26.980321250697443 171.47016723347002 1.7762083668290177e-06 -1.241272755856652e-06 28.558616153243534 3.379339349054986e-15 -1.5902773407317582e-15 3.975693351829396e-16 -93.46394905931373 35.7197000997663 -174.1987184165948 -1.5231352712060058e-06 2.286345747819618e-06 -17.769428459705104 6.361109362927033e-15 -1.7655625192200634e-31 -3.1805546814635164e-15 5.009719269338318 -14.764296560463915 -44.80686626169893 -4.328619757141163 3.8339168833223227 -10.99066345510315 1.879358540966669e-32 -7.95138670365879e-16 2.708441095933775e-15 -2.995328038574279 -16.395942001094756 25.21260293325694 -0.6544677959786167 7.634637240335376 18.44535871542411 0.0 0.0 -2.7332891793827093e-15
52.499996185302734 14.200000762939453 253.60000610351562 1.7955112545128786 13.053985641288893 -7.115368742727925 -4.5050342826796536e-08 -3.424524075529841e-07 -6.671292248168613 92.75297205738725 27.222527830144838 171.82540864626782 3.6504359139343586e-06 1.207357855738809e-07 30.605168462793905 2.3605679276487042e-15 1.5902773407317588e-15 -6.957463365701445e-16 -92.67620991904586 31.53600491869395 -176.05044637515343 2.531910740538091e-06 -4.040830622711215e-06 -18.234142914393694 3.1805546814635164e-15 3.1805546814635164e-15 3.1805546814635164e-15 5.19062633322025 -14.772201378208607 -44.20345999432303 -4.387086832483062 4.226541607350614 -12.281196720631312 -3.975693351829396e-16 1.0948556637741604e-32 -3.155706598014583e-15 -2.513758716670387 -16.327578826384205 23.874456795655252 -1.1540592050764467 7.414146139859332 17.94915815928622 0.0 0.0 2.6587449290359092e-15
